<?xml version="1.0" encoding="UTF-8"?>
<svg version="1.1" xmlns="http://www.w3.org/2000/svg" width="512" height="512">
<path fill="currentColor" d="M0 0 C0.7734375 -0.00773437 1.546875 -0.01546875 2.34375 -0.0234375 C5.07824661 0.48184992 5.8186013 1.17793676 7.5 3.375 C7.84057617 5.8269043 7.84057617 5.8269043 7.79296875 8.69921875 C7.78330078 9.72724609 7.77363281 10.75527344 7.76367188 11.81445312 C7.73853516 12.88630859 7.71339844 13.95816406 7.6875 15.0625 C7.67396484 16.14595703 7.66042969 17.22941406 7.64648438 18.34570312 C7.61110643 21.02263405 7.56174189 23.69856838 7.5 26.375 C8.28483387 26.37131283 9.06966774 26.36762566 9.87828445 26.36382675 C28.96512296 26.27553258 48.05192076 26.20931812 67.13891983 26.16775131 C76.36921772 26.14711619 85.59937938 26.11897751 94.82958984 26.07324219 C102.87359543 26.03340342 110.91750238 26.0075741 118.96160388 25.99864602 C123.22189464 25.99342622 127.48190317 25.98113831 131.74210358 25.95207977 C135.75089046 25.92495729 139.7592785 25.91654848 143.76814842 25.92256927 C145.24036768 25.92146761 146.71260008 25.91349456 148.18474007 25.8981781 C150.19323229 25.87830397 152.20193787 25.88543931 154.21051025 25.89398193 C155.33509769 25.89029476 156.45968513 25.88660759 157.61835098 25.88280869 C161.16763643 26.48903361 162.34355582 27.54012653 164.5 30.375 C165.13934638 34.13115998 164.86745559 35.78484787 162.84760666 39.02882671 C160.5 41.375 160.5 41.375 157.71205521 41.99023914 C156.63171383 41.98563018 155.55137245 41.98102121 154.43829346 41.97627258 C153.19591415 41.9831459 151.95353485 41.99001923 150.67350769 41.99710083 C149.29958502 41.97940627 147.92566845 41.96123223 146.55175781 41.94262695 C145.10291086 41.94121637 143.65406033 41.94200867 142.20521545 41.94483948 C138.27344649 41.94627468 134.34243947 41.91686903 130.41084766 41.88196969 C126.30158662 41.85072301 122.19230829 41.8477768 118.08294678 41.84184265 C110.30202341 41.82629918 102.52145111 41.7852641 94.74068236 41.7350952 C85.88228299 41.67921724 77.0238669 41.65171917 68.16533518 41.62661803 C49.94335772 41.57434853 31.72170708 41.48639664 13.5 41.375 C13.99814209 42.45430786 14.49628418 43.53361572 15.00952148 44.64562988 C39.25634766 97.18041992 63.50317383 149.71520996 87.75 202.25 C88.12116943 203.05418869 88.49233887 203.85837738 88.87475586 204.68693542 C89.62560578 206.31380067 90.37641951 207.94068262 91.12719727 209.56758118 C92.98889888 213.6016798 94.85120506 217.63549702 96.71484375 221.66870117 C100.24938951 229.31973874 103.77717133 236.97372385 107.28540039 244.63687134 C108.9525176 248.27749551 110.62285543 251.91663773 112.29345703 255.55566406 C113.09292758 257.29955167 113.89079978 259.04417298 114.68701172 260.78955078 C115.78736871 263.20138789 116.89308509 265.61069847 118 268.01953125 C118.32621338 268.7383699 118.65242676 269.45720856 118.98852539 270.1978302 C120.27367783 272.98307502 121.31257544 275.18757544 123.5 277.375 C124.04269531 276.82070313 124.58539063 276.26640625 125.14453125 275.6953125 C125.85996094 274.97085937 126.57539063 274.24640625 127.3125 273.5 C128.02019531 272.78070313 128.72789062 272.06140625 129.45703125 271.3203125 C132.32425355 268.59014671 133.94881776 267.43512897 137.9375 267 C141.5 267.375 141.5 267.375 143.9375 268.875 C145.70951536 271.71022458 145.97839008 273.95377624 146.03125 277.27734375 C145.5 279.375 145.5 279.375 141.5 284.375 C202.55 284.375 263.6 284.375 326.5 284.375 C313.72772356 256.80833619 313.72772356 256.80833619 300.9375 229.25 C295.89964494 218.40364453 290.88412517 207.54714456 285.875 196.6875 C277.23611595 177.95866755 268.56738252 159.24376406 259.89111328 140.53222656 C257.50876595 135.39419257 255.1272919 130.25575416 252.74609375 125.1171875 C252.35383102 124.27069641 251.9615683 123.42420532 251.55741882 122.55206299 C249.98053637 119.14914503 248.40369075 115.74621002 246.82687378 112.34326172 C242.74523076 103.53464905 238.66316906 94.72623168 234.57879639 85.91888428 C232.84455965 82.17917339 231.11062319 78.43932332 229.37670898 74.69946289 C228.55443029 72.92611873 227.73200641 71.15284189 226.90942383 69.37963867 C222.74046347 60.39271502 218.57561352 51.40478733 214.5 42.375 C213.70303711 42.3656543 212.90607422 42.35630859 212.08496094 42.34667969 C208.47267825 42.29298502 204.86169179 42.20933392 201.25 42.125 C199.99574219 42.11082031 198.74148438 42.09664062 197.44921875 42.08203125 C196.24394531 42.04980469 195.03867187 42.01757812 193.796875 41.984375 C192.68666992 41.96342773 191.57646484 41.94248047 190.43261719 41.92089844 C186.86281115 41.25638909 185.66062804 40.25197222 183.5 37.375 C183 33.875 183 33.875 183.5 30.375 C185.61347743 27.58967227 186.76226155 26.49686443 190.24902344 25.92089844 C191.27543945 25.9418457 192.30185547 25.96279297 193.359375 25.984375 C194.47441406 25.99726563 195.58945312 26.01015625 196.73828125 26.0234375 C198.47658203 26.07371094 198.47658203 26.07371094 200.25 26.125 C202.01150391 26.15207031 202.01150391 26.15207031 203.80859375 26.1796875 C206.7065534 26.2268088 209.60286418 26.29258695 212.5 26.375 C212.48428955 25.69397217 212.4685791 25.01294434 212.45239258 24.3112793 C212.39006778 21.22843719 212.35101742 18.14572756 212.3125 15.0625 C212.27479492 13.4547168 212.27479492 13.4547168 212.23632812 11.81445312 C212.22666016 10.78642578 212.21699219 9.75839844 212.20703125 8.69921875 C212.1913208 7.75135498 212.17561035 6.80349121 212.15942383 5.8269043 C212.5 3.375 212.5 3.375 213.88354492 1.56713867 C216.01011535 -0.00121103 217.37748007 -0.0262252 220 0 C220.7734375 -0.00773437 221.546875 -0.01546875 222.34375 -0.0234375 C225.08302546 0.48273297 225.83075174 1.15993877 227.5 3.375 C227.74194336 5.87329102 227.74194336 5.87329102 227.58984375 8.87890625 C227.15390065 26.42403654 230.45634886 38.2139937 238.56933594 53.60742188 C241.94449932 60.10008277 244.89778521 66.8006435 247.93041992 73.45779419 C249.84855467 77.65927248 251.7884255 81.8506898 253.7265625 86.04296875 C254.52116093 87.76350816 255.31575728 89.48404852 256.11035156 91.20458984 C262.43002694 104.88174465 268.77092093 118.54908808 275.10888672 132.21777344 C278.67836205 139.9160991 282.2458596 147.61534129 285.81350708 155.31451416 C287.79225711 159.58471362 289.77113502 163.85485381 291.75 168.125 C292.54166728 169.83333305 293.33333395 171.54166638 294.125 173.25 C294.516875 174.095625 294.90875 174.94125 295.3125 175.8125 C296.5 178.375 297.6875 180.9375 298.875 183.5 C299.26681961 184.34550415 299.65863922 185.1910083 300.06233215 186.06213379 C300.85456239 187.77168593 301.64678854 189.48123997 302.43901062 191.1907959 C304.40952121 195.44299693 306.38010121 199.69516576 308.35083008 203.94726562 C312.01640462 211.85640174 315.68132175 219.76584036 319.34384155 227.6763916 C321.04846156 231.35803282 322.75346558 235.03949615 324.45849609 238.72094727 C325.26060708 240.45311822 326.06253602 242.18537348 326.86425781 243.91772461 C332.03472614 255.08986594 337.24467467 266.24251224 342.5 277.375 C343.61530726 276.4253287 344.7297163 275.47460245 345.84375 274.5234375 C346.46443359 273.99411621 347.08511719 273.46479492 347.72460938 272.91943359 C349.18328294 271.65051597 350.59831516 270.33160059 352 269 C355.40050198 266.78967371 357.52258059 266.79646627 361.5 267.375 C363.9375 268.875 363.9375 268.875 365.5 271.375 C366.27508597 274.83307585 366.51046556 276.11344171 365.5 279.375 C362.88378149 283.10131122 359.74681771 286.19674254 356.5 289.375 C355.67628906 290.22191406 354.85257812 291.06882812 354.00390625 291.94140625 C345.8766899 300.25545516 345.8766899 300.25545516 341.58643156 300.62799966 C339.78240509 300.63011294 339.78240509 300.63011294 337.94193363 300.63226891 C336.93311238 300.63752802 336.93311238 300.63752802 335.90391091 300.64289337 C333.63402544 300.65225066 331.36439412 300.64727304 329.09449768 300.64242554 C327.4572114 300.64615962 325.81992691 300.65076016 324.18264526 300.65615618 C319.67070065 300.66843144 315.15882992 300.66812042 310.6468724 300.66576743 C305.7858508 300.66536041 300.92485326 300.67638738 296.06384277 300.68588257 C286.53577986 300.70251791 277.00774168 300.70799324 267.47966547 300.70910732 C259.73806193 300.71005652 251.99646659 300.71416038 244.25486565 300.72050858 C222.32384981 300.73812726 200.39285358 300.74734637 178.46183062 300.74584763 C177.27874048 300.74576772 176.09565034 300.7456878 174.87670898 300.74560547 C173.69218067 300.74552371 172.50765235 300.74544195 171.28722923 300.74535771 C152.0812717 300.74454445 132.87539254 300.76369059 113.66945768 300.7918822 C93.96644157 300.82057615 74.26346372 300.83442445 54.56042618 300.83269465 C43.49158575 300.83202958 32.42282747 300.83757309 21.35400581 300.85905075 C11.9313203 300.87721662 2.5087542 300.88164778 -6.9139412 300.8680319 C-11.72454919 300.86147917 -16.5349278 300.86146772 -21.3455143 300.8787384 C-25.745434 300.89437277 -30.14494061 300.8917051 -34.54484964 300.87417014 C-36.14038092 300.87107886 -37.7359423 300.87481192 -39.33143812 300.88589029 C-41.49349635 300.89991366 -43.65408586 300.88950482 -45.81609249 300.87277794 C-47.01893916 300.87321267 -48.22178583 300.87364741 -49.4610824 300.87409532 C-53.12859329 300.27176325 -54.31460663 299.338021 -56.5 296.375 C-57 292.875 -57 292.875 -56.5 289.375 C-55.18 288.055 -53.86 286.735 -52.5 285.375 C-37.65 285.375 -22.8 285.375 -7.5 285.375 C-7.83 215.085 -8.16 144.795 -8.5 72.375 C-23.35815579 103.63870385 -23.35815579 103.63870385 -38.05078125 134.9765625 C-41.80250294 143.0368728 -45.58722797 151.08158156 -49.375 159.125 C-49.70781982 159.83188965 -50.04063965 160.5387793 -50.38354492 161.26708984 C-53.43993782 167.75850452 -56.49786934 174.24919366 -59.55712891 180.73925781 C-61.60126238 185.07585335 -63.64474156 189.41275658 -65.6875 193.75 C-66.18997757 194.81683014 -66.18997757 194.81683014 -66.7026062 195.9052124 C-71.66612932 206.44653155 -76.5855525 217.00735176 -81.47924805 227.58129883 C-86.81633637 239.09452615 -92.2429246 250.56524315 -97.67749023 262.03271484 C-101.34915871 269.78519445 -104.98816813 277.54830018 -108.5 285.375 C-107.64245117 285.34881592 -106.78490234 285.32263184 -105.90136719 285.2956543 C-102.71083811 285.21029403 -99.52089193 285.14768487 -96.32958984 285.1003418 C-94.95016298 285.0752407 -93.57086858 285.04115127 -92.19189453 284.99780273 C-90.20664128 284.93697125 -88.22040641 284.91142063 -86.234375 284.88671875 C-84.44338379 284.84744263 -84.44338379 284.84744263 -82.61621094 284.80737305 C-79.5 285.375 -79.5 285.375 -77.07519531 287.67895508 C-75.5 290.375 -75.5 290.375 -75.5625 294 C-76.49697359 297.36410494 -76.83780728 298.32910709 -79.5 300.375 C-81.53981018 300.79632568 -81.53981018 300.79632568 -83.90454102 300.85839844 C-84.7929921 300.88722107 -85.68144318 300.9160437 -86.59681702 300.94573975 C-87.55615646 300.95848938 -88.51549591 300.97123901 -89.50390625 300.984375 C-90.99349098 301.01002533 -90.99349098 301.01002533 -92.51316833 301.03619385 C-94.61878883 301.06454876 -96.72454256 301.0841479 -98.83032227 301.09570312 C-102.02797903 301.1246871 -105.21972991 301.21764153 -108.41601562 301.3125 C-125.5664999 301.57994179 -125.5664999 301.57994179 -131.65234375 296.1328125 C-132.98305254 294.5870597 -134.27387589 293.00495621 -135.5 291.375 C-136.923125 290.01761719 -136.923125 290.01761719 -138.375 288.6328125 C-139.07625 287.92898438 -139.7775 287.22515625 -140.5 286.5 C-141.221875 285.78070313 -141.94375 285.06140625 -142.6875 284.3203125 C-146.04891369 280.71258832 -146.96386404 278.27592203 -146.80859375 273.31640625 C-146.5 271.375 -146.5 271.375 -144.9375 268.875 C-141.28266663 266.62587178 -139.7567785 266.48244967 -135.5 267.375 C-132.68102851 269.52198278 -130.16868794 271.83090874 -127.63671875 274.30859375 C-125.67521623 276.41252338 -125.67521623 276.41252338 -123.5 277.375 C-123.19521729 276.71532227 -122.89043457 276.05564453 -122.57641602 275.37597656 C-115.80054652 260.72098543 -108.96704276 246.09480042 -102.0625 231.5 C-96.82557655 220.42984512 -91.60770045 209.35148414 -86.4375 198.25 C-81.52240266 187.69772796 -76.58397943 177.15672509 -71.625 166.625 C-71.29236145 165.9184729 -70.9597229 165.2119458 -70.61700439 164.48400879 C-67.56042831 157.99222796 -64.50230518 151.50117658 -61.44287109 145.01074219 C-59.39873762 140.67414665 -57.35525844 136.33724342 -55.3125 132 C-54.81002243 130.93316986 -54.81002243 130.93316986 -54.2973938 129.8447876 C-49.33079906 119.29694507 -44.40774364 108.7298558 -39.51196289 98.14892578 C-36.0800054 90.74409585 -32.61142178 83.35759218 -29.11488342 75.98306274 C-27.25075162 72.05119479 -25.39276938 68.11672809 -23.55102539 64.17431641 C-17.64082906 51.53943045 -17.64082906 51.53943045 -14.453125 45.625 C-7.64182027 32.65618294 -7.35090449 20.49724382 -7.78955078 5.96850586 C-7.5 3.375 -7.5 3.375 -6.12255859 1.54272461 C-3.99052467 0.00834028 -2.60854675 -0.02608547 0 0 Z M17.5 92.375 C18.5 94.375 18.5 94.375 18.5 94.375 Z M18.5 94.375 C19.0594329 103.63450995 20.20423527 112.68837807 21.70898438 121.83837891 C21.93456151 123.23435257 22.1596706 124.63040193 22.38435364 126.02651978 C22.98894559 129.77457318 23.60016868 133.52151617 24.2128315 137.26825762 C24.85524628 141.20335016 25.4918714 145.13937971 26.12927246 149.07528687 C27.19824276 155.67074487 28.27133344 162.26552166 29.34716797 168.85986328 C30.59080534 176.48293674 31.82889394 184.10689485 33.06383848 191.73138106 C34.38158769 199.86682646 35.70314899 208.0016491 37.02594185 216.13627577 C37.4062475 218.47654712 37.78586046 220.81692997 38.16532898 223.15733719 C38.76049169 226.82677711 39.35821939 230.49579031 39.9579525 234.16448593 C40.28264506 236.15426982 40.60489407 238.14445197 40.92707825 240.13464355 C41.12053329 241.31479034 41.31398834 242.49493713 41.51330566 243.71084595 C41.68069496 244.73835276 41.84808426 245.76585957 42.02054596 246.82450294 C42.46059353 249.48264108 42.46059353 249.48264108 43.5 252.375 C44.78648437 252.21644531 46.07296875 252.05789063 47.3984375 251.89453125 C64.29785191 250.03552963 78.88890337 251.46971138 94.5 258.375 C92.12352136 250.25841142 88.5198306 242.797935 84.86715698 235.19989014 C82.93709925 231.18329063 81.02518621 227.15807706 79.11328125 223.1328125 C78.52843712 221.90239731 78.52843712 221.90239731 77.93177795 220.64712524 C74.17396281 212.72310169 70.5431131 204.74415034 66.9375 196.75 C61.82743942 185.43176343 56.61645933 174.16620381 51.3125 162.9375 C50.8070314 161.8673465 50.8070314 161.8673465 50.29135132 160.77557373 C49.95697052 160.06765686 49.62258972 159.35973999 49.27807617 158.63037109 C43.77970803 146.98826483 38.36542828 135.30897929 32.98828125 123.61035156 C30.24835054 117.65405861 27.49838578 111.70239501 24.75 105.75 C23.73433556 103.54949737 22.71870669 101.34897832 21.703125 99.1484375 C21.27676758 98.22466309 20.85041016 97.30088867 20.41113281 96.34912109 C19.96012207 95.37193115 19.96012207 95.37193115 19.5 94.375 C19.17 94.375 18.84 94.375 18.5 94.375 Z M7.5 133.375 C7.5 183.535 7.5 233.695 7.5 285.375 C38.85 285.375 70.2 285.375 102.5 285.375 C92.10937092 274.98437092 80.42706743 266.23751161 65.14379883 266.046875 C64.39509521 266.05203125 63.6463916 266.0571875 62.875 266.0625 C62.08955811 266.06378906 61.30411621 266.06507813 60.49487305 266.06640625 C54.49292148 266.16420768 49.02405171 267.1569346 43.21484375 268.6953125 C39.73694073 269.5660393 37.05349397 269.83849921 33.5 269.375 C30.88359667 267.30875513 30.0643813 265.66559816 29.48419189 262.42170715 C29.33578228 261.62160312 29.18737267 260.82149908 29.03446579 259.99714947 C28.88548466 259.12257501 28.73650352 258.24800055 28.58300781 257.34692383 C28.41625172 256.42023046 28.24949562 255.49353708 28.07768631 254.53876209 C27.5353054 251.48677991 27.01443718 248.43181127 26.5 245.375 C26.32782455 244.35477627 26.15564911 243.33455254 25.97825623 242.28341293 C24.66959188 234.47001302 23.41822784 226.64775619 22.171875 218.82421875 C21.77429641 216.34312197 21.37644382 213.86206909 20.97833252 211.38105774 C19.94324573 204.92583754 18.91182259 198.47003744 17.88122559 192.01409912 C16.82446147 185.39635267 15.76346227 178.77928404 14.703125 172.16210938 C12.63198734 159.23362032 10.56460796 146.30453334 8.5 133.375 C8.17 133.375 7.84 133.375 7.5 133.375 Z "
      transform="translate(146.5,105.625)"/>
<path fill="currentColor" d="M0 0 C0.67846513 -0.00623996 1.35693026 -0.01247993 2.05595493 -0.01890898 C4.32859142 -0.03485958 6.60015837 -0.02222777 8.87280273 -0.00964355 C10.50235622 -0.0150638 12.1319048 -0.02218591 13.76144409 -0.03088379 C18.18707652 -0.04913186 22.6123363 -0.04204359 27.03797531 -0.02936745 C31.66725425 -0.01924743 36.29650107 -0.02863035 40.92578125 -0.03491211 C48.70017227 -0.04219143 56.47441134 -0.03259336 64.2487793 -0.0135498 C73.23980034 0.00821951 82.23045858 0.00116834 91.22147083 -0.02085543 C98.93792993 -0.03900133 106.65427975 -0.04157172 114.37075329 -0.03110075 C118.98080073 -0.02486135 123.59067759 -0.0240424 128.20071411 -0.0372467 C132.53464891 -0.04879285 136.8681155 -0.04080235 141.20199966 -0.01766968 C142.7935216 -0.01237594 144.38508286 -0.01390776 145.9765892 -0.02272034 C148.1475242 -0.03363399 150.31695418 -0.01996558 152.48779297 0 C154.31068092 0.00226215 154.31068092 0.00226215 156.1703949 0.00457001 C159.86362398 0.60943081 160.97506551 1.59399019 163.24389648 4.50793457 C164.83691406 7.48352051 164.83691406 7.48352051 166.38842773 10.99230957 C166.67469528 11.63162415 166.96096283 12.27093872 167.25590515 12.92962646 C167.87367711 14.31156086 168.48737733 15.69532123 169.09741211 17.08068848 C170.74894519 20.83027402 172.43060658 24.56637045 174.10717773 28.30480957 C174.45116608 29.07417847 174.79515442 29.84354736 175.14956665 30.63623047 C178.28870113 37.6453431 181.53708598 44.60018571 184.81665039 51.54446411 C190.78435137 64.18124377 196.63275485 76.86774459 202.37719727 89.60754395 C205.90345572 97.41764909 209.49605553 105.19217632 213.15405273 112.94152832 C214.40116313 115.59628121 215.6472947 118.25149147 216.89315796 120.90682983 C217.70205867 122.62337494 218.51562666 124.33772939 219.33413696 126.04971313 C220.47999833 128.44704372 221.60940922 130.85154022 222.73608398 133.25793457 C223.07700577 133.9597435 223.41792755 134.66155243 223.7691803 135.3846283 C225.93141548 140.05485419 227.9877389 145.29357847 227.24389648 150.50793457 C225.02775932 153.41587934 223.83703427 154.41029695 220.18601227 155.01129913 C218.97812798 155.01280724 217.77024368 155.01431534 216.52575684 155.01586914 C215.85137526 155.0221091 215.17699368 155.02834907 214.4821763 155.03477812 C212.22335715 155.05072795 209.96561419 155.03809725 207.70678711 155.0255127 C206.08708568 155.03093298 204.46738917 155.03805511 202.84770203 155.04675293 C198.4489275 155.06500058 194.0505279 155.05791291 189.65174675 155.04523659 C185.05049497 155.03511635 180.44927549 155.04449955 175.84802246 155.05078125 C168.12070954 155.05806051 160.39354949 155.04846267 152.66625977 155.02941895 C143.72976954 155.00764964 134.79364433 155.01470082 125.85716295 155.03672457 C118.1874124 155.05487066 110.5177718 155.05744077 102.84800673 155.04696989 C98.26590459 155.04073059 93.68397408 155.03991127 89.10188293 155.05311584 C84.79421191 155.06466226 80.48701194 155.05667101 76.17939186 155.03353882 C74.59754532 155.02824522 73.0156592 155.02977666 71.43382835 155.03858948 C69.27602735 155.04950373 67.11974036 155.03583409 64.96203613 155.01586914 C63.75415184 155.01436104 62.54626755 155.01285294 61.3017807 155.01129913 C57.63030574 154.40693015 56.50995947 153.39425744 54.24389648 150.50793457 C52.8503418 148.02307129 52.8503418 148.02307129 51.57202148 145.18762207 C50.83532227 143.57500488 50.83532227 143.57500488 50.08374023 141.92980957 C49.5590918 140.75934082 49.03444336 139.58887207 48.49389648 138.38293457 C47.63544602 136.49584521 46.77362552 134.61031654 45.91174316 132.72479248 C45.30370767 131.39400014 44.69671412 130.06273131 44.09069824 128.73101807 C40.87857161 121.67856059 37.57335348 114.67079445 34.26257324 107.66424561 C28.52335655 95.5156065 22.83343936 83.34525546 17.19067383 71.15148926 C14.19265814 64.68096514 11.1719859 58.22195045 8.12670898 51.77355957 C7.77320374 51.02457397 7.41969849 50.27558838 7.05548096 49.50390625 C5.33552211 45.86056837 3.61310544 42.21842762 1.88647461 38.57824707 C-0.01425324 34.563931 -1.88950227 30.53821143 -3.75610352 26.50793457 C-4.08984985 25.79339111 -4.42359619 25.07884766 -4.76745605 24.34265137 C-5.76831191 22.18966836 -6.75251545 20.02978496 -7.73266602 17.86730957 C-8.03715668 17.21715881 -8.34164734 16.56700806 -8.65536499 15.89715576 C-10.41560457 11.95747727 -11.43323725 8.81176346 -10.75610352 4.50793457 C-7.5857156 0.27602409 -5.15290474 0.00639461 0 0 Z M10.24389648 15.50793457 C12.76434285 23.12611761 12.76434285 23.12611761 15.92358398 30.30871582 C16.4331665 31.35293701 16.94274902 32.3971582 17.46777344 33.47302246 C18.01264404 34.57766846 18.55751465 35.68231445 19.11889648 36.82043457 C20.29894298 39.2415217 21.47765004 41.66320531 22.65405273 44.08605957 C22.95423813 44.70336441 23.25442352 45.32066925 23.56370544 45.9566803 C26.63812674 52.29234504 29.60443459 58.67689244 32.55639648 65.07043457 C38.03492089 76.92619255 43.5799362 88.74925002 49.16113281 100.55700684 C55.27043591 113.50464109 61.24346939 126.50700921 67.24389648 139.50793457 C113.11389648 139.50793457 158.98389648 139.50793457 206.24389648 139.50793457 C204.21273372 133.41444626 202.14477044 127.78766843 199.42749023 122.03137207 C199.05909027 121.24043152 198.69069031 120.44949097 198.31112671 119.63458252 C197.10558454 117.04863537 195.89341681 114.46585085 194.68139648 111.88293457 C193.82821281 110.05490958 192.97560194 108.22661714 192.12353516 106.39807129 C190.36492469 102.62463959 188.60437048 98.85212444 186.8425293 95.0802002 C183.25244335 87.38844355 179.69236956 79.68288534 176.13699341 71.97503662 C175.12139727 69.77381825 174.10454834 67.5731832 173.08740234 65.37268066 C165.42392895 48.77329406 157.84539137 32.13620464 150.24389648 15.50793457 C104.04389648 15.50793457 57.84389648 15.50793457 10.24389648 15.50793457 Z "
      transform="translate(193.756103515625,161.4920654296875)"/>
<path fill="currentColor" d="M0 0 C0.82148529 -0.01279495 1.64297058 -0.0255899 2.48934937 -0.03877258 C3.83594635 -0.03673325 3.83594635 -0.03673325 5.20974731 -0.03465271 C6.15800385 -0.04472855 7.10626038 -0.05480438 8.08325195 -0.06518555 C11.22465739 -0.09373224 14.36558345 -0.09954559 17.5071106 -0.10276794 C19.688031 -0.11240469 21.86894944 -0.12249683 24.04986572 -0.13302612 C28.6246897 -0.15100453 33.19934362 -0.15654542 37.77420044 -0.1547699 C43.63803727 -0.15446503 49.50078425 -0.19541664 55.36436272 -0.24708652 C59.86996473 -0.28043521 64.37530297 -0.28652792 68.88101578 -0.28494072 C71.04280478 -0.28848301 73.20460045 -0.30176494 75.36626816 -0.32493782 C78.3903924 -0.35431953 81.4121478 -0.34571709 84.43630981 -0.32762146 C85.32999268 -0.34447998 86.22367554 -0.3613385 87.1444397 -0.37870789 C93.07179543 -0.28853206 93.07179543 -0.28853206 95.58821869 1.68222427 C99.97938237 6.82405251 102.7152712 13.26827101 105.7024231 19.27613831 C106.29152466 20.42211487 106.88062622 21.56809143 107.48757935 22.74879456 C113.20344656 34.16738905 113.20344656 34.16738905 112.9524231 40.40113831 C111.52931213 43.07797241 111.52931213 43.07797241 108.9524231 45.40113831 C105.83589604 46.15551559 102.77574732 46.09452415 99.58157349 46.0639801 C98.63317093 46.07434799 97.68476837 46.08471588 96.70762634 46.09539795 C93.57133763 46.12251083 90.43644315 46.11279668 87.30007935 46.10035706 C85.12058623 46.10626422 82.94109637 46.1135102 80.76161194 46.12203979 C76.19263817 46.1339283 71.62415128 46.12719894 67.0552063 46.10792542 C61.19916299 46.08504667 55.34457136 46.1118035 49.4886713 46.15298748 C44.9873111 46.17856062 40.48629839 46.17598668 35.98489189 46.16509438 C33.82591879 46.1636069 31.66691916 46.17130676 29.50801277 46.18834496 C26.4886686 46.20830344 23.47189286 46.18994134 20.45266724 46.16163635 C19.11449951 46.182211 19.11449951 46.182211 17.7492981 46.20320129 C11.83175681 46.09230265 11.83175681 46.09230265 9.31059361 44.11064529 C6.68814358 41.04095372 4.82387445 37.56846951 3.12820435 33.92457581 C2.42147583 32.42410706 2.42147583 32.42410706 1.70046997 30.89332581 C1.2267395 29.86465393 0.75300903 28.83598206 0.2649231 27.77613831 C-0.69726469 25.72142655 -1.65950226 23.66673811 -2.62179565 21.61207581 C-3.04033813 20.70763733 -3.45888062 19.80319885 -3.8901062 18.87135315 C-4.62385501 17.30542392 -5.38438723 15.75154442 -6.1803894 14.21632385 C-7.24332509 11.99140076 -7.34760496 10.29561107 -7.3600769 7.83863831 C-7.37683472 7.07422424 -7.39359253 6.30981018 -7.41085815 5.52223206 C-6.68161662 1.26440243 -4.05893197 0.0286034 0 0 Z M12.9524231 15.40113831 C15.2624231 20.35113831 17.5724231 25.30113831 19.9524231 30.40113831 C43.7124231 30.40113831 67.4724231 30.40113831 91.9524231 30.40113831 C89.6424231 25.45113831 87.3324231 20.50113831 84.9524231 15.40113831 C61.1924231 15.40113831 37.4324231 15.40113831 12.9524231 15.40113831 Z "
      transform="translate(238.04757690429688,191.59886169433594)"/>
</svg>
